<svg width="1000" height="320" viewBox="0 0 1000 320" fill="none" xmlns="http://www.w3.org/2000/svg">
  <defs>
    <filter id="blueGlow" x="-20%" y="-40%" width="140%" height="180%">
      <feGaussianBlur stdDeviation="5" result="blur"></feGaussianBlur>
      <feMerge>
        <feMergeNode in="blur"></feMergeNode>
        <feMergeNode in="SourceGraphic"></feMergeNode>
      </feMerge>
    </filter>

    <linearGradient id="panelBg" x1="100" y1="40" x2="900" y2="290">
      <stop stop-color="#0B1F38"></stop>
      <stop offset="1" stop-color="#02070C"></stop>
    </linearGradient>

    <linearGradient id="lineBlue" x1="80" y1="35" x2="930" y2="290">
      <stop stop-color="#67B8FF"></stop>
      <stop offset="0.5" stop-color="#2D8CFF"></stop>
      <stop offset="1" stop-color="#85D4FF"></stop>
    </linearGradient>
  </defs>

  <path d="M150 38 H430 L448 22 H865 L925 82 V225 L865 288 H690 L665 305 H150 L88 243 V98 Z" fill="url(#panelBg)" fill-opacity="0.72" stroke="url(#lineBlue)" stroke-width="2.5" filter="url(#blueGlow)"></path>

  <path d="M162 52 H415" stroke="#78C7FF" stroke-width="2" stroke-linecap="round" opacity="0.9"></path>

  <path d="M698 288 H854 L912 230 V98" stroke="#78C7FF" stroke-width="2" stroke-linecap="round" opacity="0.8"></path>

  <path d="M100 242 L162 302 H665 L690 285 H854" stroke="#78C7FF" stroke-width="2" stroke-linecap="round" opacity="0.55"></path>

  <path d="M99 98 L162 38 H430" stroke="#78C7FF" stroke-width="2" stroke-linecap="round" opacity="0.55"></path>

  <path d="M325 35 L335 35" stroke="#78C7FF" stroke-width="6" stroke-linecap="square"></path>
  <path d="M342 35 L352 35" stroke="#78C7FF" stroke-width="6" stroke-linecap="square"></path>
  <path d="M359 35 L369 35" stroke="#78C7FF" stroke-width="6" stroke-linecap="square"></path>

  <path d="M640 288 L650 288" stroke="#78C7FF" stroke-width="6" stroke-linecap="square"></path>
  <path d="M657 288 L667 288" stroke="#78C7FF" stroke-width="6" stroke-linecap="square"></path>
  <path d="M674 288 L684 288" stroke="#78C7FF" stroke-width="6" stroke-linecap="square"></path>
  <path d="M691 288 L701 288" stroke="#78C7FF" stroke-width="6" stroke-linecap="square"></path>

  <path d="M96 151 H108" stroke="#78C7FF" stroke-width="3"></path>
  <path d="M96 160 H108" stroke="#78C7FF" stroke-width="3"></path>
  <path d="M96 169 H108" stroke="#78C7FF" stroke-width="3"></path>

  <path d="M908 151 H920" stroke="#78C7FF" stroke-width="3"></path>
  <path d="M908 160 H920" stroke="#78C7FF" stroke-width="3"></path>
  <path d="M908 169 H920" stroke="#78C7FF" stroke-width="3"></path>
</svg>